<mxfile host="app.diagrams.net" agent="Mozilla/5.0 (Windows NT 10.0; Win64; x64) AppleWebKit/537.36 (KHTML, like Gecko) Chrome/127.0.0.0 Safari/537.36" version="24.7.6">
  <diagram id="6a731a19-8d31-9384-78a2-239565b7b9f0" name="Page-1">
    <mxGraphModel dx="446" dy="2299" grid="1" gridSize="10" guides="1" tooltips="1" connect="1" arrows="1" fold="1" page="1" pageScale="1" pageWidth="827" pageHeight="1169" background="none" math="0" shadow="0">
      <root>
        <mxCell id="0" />
        <mxCell id="1" parent="0" />
        <mxCell id="ksBcER7H6Mc32FxDc61I-2271" value="" style="whiteSpace=wrap;html=1;aspect=fixed;strokeWidth=5;strokeColor=#0dfd61;" vertex="1" parent="1">
          <mxGeometry x="1800" y="550" width="368" height="368" as="geometry" />
        </mxCell>
        <mxCell id="ksBcER7H6Mc32FxDc61I-2270" value="" style="whiteSpace=wrap;html=1;aspect=fixed;strokeColor=#0f1ef5;strokeWidth=5;" vertex="1" parent="1">
          <mxGeometry x="2260" y="545" width="375" height="375" as="geometry" />
        </mxCell>
        <mxCell id="ksBcER7H6Mc32FxDc61I-2261" style="edgeStyle=orthogonalEdgeStyle;rounded=0;orthogonalLoop=1;jettySize=auto;html=1;exitX=0.5;exitY=0.99;exitDx=0;exitDy=0;exitPerimeter=0;endArrow=none;endFill=0;fillColor=#f8cecc;strokeColor=#12a1de;strokeWidth=10;" edge="1" parent="1" source="2109" target="2110">
          <mxGeometry relative="1" as="geometry" />
        </mxCell>
        <mxCell id="2109" value="ISP" style="shape=mxgraph.cisco.storage.cloud;html=1;dashed=0;strokeColor=#23445D;fillColor=#ffffff;strokeWidth=2;fontFamily=Helvetica;fontSize=24;fontColor=#23445D;align=center;fontStyle=1" parent="1" vertex="1">
          <mxGeometry x="2126" y="-130" width="186" height="106" as="geometry" />
        </mxCell>
        <mxCell id="2110" value="IPS Router&lt;div&gt;Public IP&lt;/div&gt;" style="shape=mxgraph.cisco.storage.cloud;html=1;dashed=0;strokeColor=#23445D;fillColor=#ffffff;strokeWidth=2;fontFamily=Helvetica;fontSize=24;fontColor=#23445D;fontStyle=1" parent="1" vertex="1">
          <mxGeometry x="2126" y="87" width="186" height="106" as="geometry" />
        </mxCell>
        <mxCell id="ksBcER7H6Mc32FxDc61I-2257" value="" style="shape=mxgraph.cisco.routers.router;html=1;dashed=0;fillColor=#10739E;strokeColor=#ffffff;strokeWidth=2;verticalLabelPosition=bottom;verticalAlign=top;fontFamily=Helvetica;fontSize=36;fontColor=#FFB366" vertex="1" parent="1">
          <mxGeometry x="2180" y="303" width="78" height="53" as="geometry" />
        </mxCell>
        <mxCell id="ksBcER7H6Mc32FxDc61I-2258" value="" style="shape=mxgraph.cisco.switches.workgroup_switch;html=1;dashed=0;fillColor=#10739E;strokeColor=#ffffff;strokeWidth=2;verticalLabelPosition=bottom;verticalAlign=top;fontFamily=Helvetica;fontSize=36;fontColor=#FFB366" vertex="1" parent="1">
          <mxGeometry x="2168.5" y="510" width="101" height="50" as="geometry" />
        </mxCell>
        <mxCell id="ksBcER7H6Mc32FxDc61I-2259" value="" style="shape=mxgraph.cisco.computers_and_peripherals.workstation;html=1;dashed=0;fillColor=#10739E;strokeColor=#ffffff;strokeWidth=2;verticalLabelPosition=bottom;verticalAlign=top;fontFamily=Helvetica;fontSize=36;fontColor=#FFB366" vertex="1" parent="1">
          <mxGeometry x="1900" y="776" width="83" height="62" as="geometry" />
        </mxCell>
        <mxCell id="ksBcER7H6Mc32FxDc61I-2260" value="" style="shape=mxgraph.cisco.servers.fileserver;html=1;dashed=0;fillColor=#10739E;strokeColor=#ffffff;strokeWidth=2;verticalLabelPosition=bottom;verticalAlign=top;fontFamily=Helvetica;fontSize=36;fontColor=#FFB366" vertex="1" parent="1">
          <mxGeometry x="2481" y="776" width="50" height="62" as="geometry" />
        </mxCell>
        <mxCell id="ksBcER7H6Mc32FxDc61I-2262" style="edgeStyle=orthogonalEdgeStyle;rounded=0;orthogonalLoop=1;jettySize=auto;html=1;exitX=0.5;exitY=0.99;exitDx=0;exitDy=0;exitPerimeter=0;endArrow=none;endFill=0;fillColor=#f8cecc;strokeColor=#12a1de;strokeWidth=10;" edge="1" parent="1">
          <mxGeometry relative="1" as="geometry">
            <mxPoint x="2218.57" y="193" as="sourcePoint" />
            <mxPoint x="2218.57" y="305" as="targetPoint" />
          </mxGeometry>
        </mxCell>
        <mxCell id="ksBcER7H6Mc32FxDc61I-2263" style="edgeStyle=orthogonalEdgeStyle;rounded=0;orthogonalLoop=1;jettySize=auto;html=1;exitX=0.5;exitY=1;exitDx=0;exitDy=0;exitPerimeter=0;endArrow=none;endFill=0;fillColor=#f8cecc;strokeColor=#12a1de;strokeWidth=10;entryX=0.5;entryY=0;entryDx=0;entryDy=0;entryPerimeter=0;" edge="1" parent="1" source="ksBcER7H6Mc32FxDc61I-2257" target="ksBcER7H6Mc32FxDc61I-2258">
          <mxGeometry relative="1" as="geometry">
            <mxPoint x="2219" y="365.8399999999999" as="sourcePoint" />
            <mxPoint x="2218.57" y="468" as="targetPoint" />
          </mxGeometry>
        </mxCell>
        <mxCell id="ksBcER7H6Mc32FxDc61I-2264" style="rounded=0;orthogonalLoop=1;jettySize=auto;html=1;exitX=0;exitY=0.98;exitDx=0;exitDy=0;exitPerimeter=0;entryX=0.5;entryY=0;entryDx=0;entryDy=0;entryPerimeter=0;endArrow=none;endFill=0;fillColor=#f8cecc;strokeColor=#12a1de;strokeWidth=10;" edge="1" parent="1" source="ksBcER7H6Mc32FxDc61I-2258" target="ksBcER7H6Mc32FxDc61I-2259">
          <mxGeometry relative="1" as="geometry" />
        </mxCell>
        <mxCell id="ksBcER7H6Mc32FxDc61I-2265" style="rounded=0;orthogonalLoop=1;jettySize=auto;html=1;exitX=0.737;exitY=1.045;exitDx=0;exitDy=0;exitPerimeter=0;entryX=0.5;entryY=0;entryDx=0;entryDy=0;entryPerimeter=0;endArrow=none;endFill=0;fillColor=#f8cecc;strokeColor=#12a1de;strokeWidth=10;" edge="1" parent="1" source="ksBcER7H6Mc32FxDc61I-2258" target="ksBcER7H6Mc32FxDc61I-2260">
          <mxGeometry relative="1" as="geometry">
            <mxPoint x="2297" y="569" as="sourcePoint" />
            <mxPoint x="2120" y="847" as="targetPoint" />
          </mxGeometry>
        </mxCell>
        <mxCell id="ksBcER7H6Mc32FxDc61I-2268" value="&lt;div&gt;Server Network: 195.123.95.0/25&lt;/div&gt;&lt;div&gt;Subnet mask: 195.123.95.128&lt;/div&gt;Router IP for this internal Network: 195 123.95.1&lt;div&gt;&amp;nbsp;IP Pool:&amp;nbsp;195.123.95.1 to 195.123.95.127&lt;/div&gt;&lt;div&gt;DNS IP: 195.123.95.2&lt;/div&gt;" style="text;html=1;align=center;verticalAlign=middle;whiteSpace=wrap;rounded=0;" vertex="1" parent="1">
          <mxGeometry x="2340" y="560" width="260" height="70" as="geometry" />
        </mxCell>
        <mxCell id="ksBcER7H6Mc32FxDc61I-2269" value="Company Router" style="text;html=1;align=center;verticalAlign=middle;whiteSpace=wrap;rounded=0;" vertex="1" parent="1">
          <mxGeometry x="2169.5" y="360" width="100" height="10" as="geometry" />
        </mxCell>
        <mxCell id="ksBcER7H6Mc32FxDc61I-2272" value="&lt;div&gt;User Network: 195.123.95.128/25&lt;/div&gt;&lt;div&gt;Subnet mask: 255.255.255.128&amp;nbsp;&lt;/div&gt;Router IP for this internal Network: 195 123.95.129&lt;div&gt;IP Pool:&amp;nbsp;195.123.95.129 to 195.123.95.255&lt;/div&gt;&lt;div&gt;Workstation IP: 195.123.95.130&lt;br&gt;&lt;div&gt;&amp;nbsp;&lt;/div&gt;&lt;/div&gt;" style="text;html=1;align=center;verticalAlign=middle;whiteSpace=wrap;rounded=0;" vertex="1" parent="1">
          <mxGeometry x="1820" y="565" width="280" height="70" as="geometry" />
        </mxCell>
        <mxCell id="ksBcER7H6Mc32FxDc61I-2273" value="WORKSTATION" style="text;html=1;align=center;verticalAlign=middle;whiteSpace=wrap;rounded=0;" vertex="1" parent="1">
          <mxGeometry x="1900" y="838" width="60" height="30" as="geometry" />
        </mxCell>
        <mxCell id="ksBcER7H6Mc32FxDc61I-2274" value="DNS SERVER" style="text;html=1;align=center;verticalAlign=middle;whiteSpace=wrap;rounded=0;" vertex="1" parent="1">
          <mxGeometry x="2464" y="838" width="84" height="30" as="geometry" />
        </mxCell>
        <mxCell id="ksBcER7H6Mc32FxDc61I-2275" value="SWITCH" style="text;html=1;align=center;verticalAlign=middle;whiteSpace=wrap;rounded=0;" vertex="1" parent="1">
          <mxGeometry x="2179" y="565" width="60" height="30" as="geometry" />
        </mxCell>
      </root>
    </mxGraphModel>
  </diagram>
</mxfile>
